<mxfile host="app.diagrams.net" agent="Mozilla/5.0 (Windows NT 10.0; Win64; x64) AppleWebKit/537.36 (KHTML, like Gecko) Chrome/127.0.0.0 Safari/537.36 Edg/127.0.0.0" version="24.7.7">
  <diagram id="C5RBs43oDa-KdzZeNtuy" name="Page-1">
    <mxGraphModel dx="2649" dy="609" grid="1" gridSize="10" guides="1" tooltips="1" connect="1" arrows="1" fold="1" page="1" pageScale="1" pageWidth="827" pageHeight="1169" math="0" shadow="0">
      <root>
        <mxCell id="WIyWlLk6GJQsqaUBKTNV-0" />
        <mxCell id="WIyWlLk6GJQsqaUBKTNV-1" parent="WIyWlLk6GJQsqaUBKTNV-0" />
        <mxCell id="zArWD3oiDmWnV3UPEHup-2" style="edgeStyle=orthogonalEdgeStyle;rounded=0;orthogonalLoop=1;jettySize=auto;html=1;entryX=0.5;entryY=0;entryDx=0;entryDy=0;" edge="1" parent="WIyWlLk6GJQsqaUBKTNV-1" source="WIyWlLk6GJQsqaUBKTNV-3" target="zArWD3oiDmWnV3UPEHup-1">
          <mxGeometry relative="1" as="geometry" />
        </mxCell>
        <mxCell id="WIyWlLk6GJQsqaUBKTNV-3" value="Program Start&lt;div&gt;Select db&lt;/div&gt;" style="rounded=1;whiteSpace=wrap;html=1;fontSize=12;glass=0;strokeWidth=1;shadow=0;" parent="WIyWlLk6GJQsqaUBKTNV-1" vertex="1">
          <mxGeometry x="200" y="80" width="120" height="40" as="geometry" />
        </mxCell>
        <mxCell id="zArWD3oiDmWnV3UPEHup-12" style="edgeStyle=orthogonalEdgeStyle;rounded=0;orthogonalLoop=1;jettySize=auto;html=1;entryX=1;entryY=0.25;entryDx=0;entryDy=0;" edge="1" parent="WIyWlLk6GJQsqaUBKTNV-1" source="zArWD3oiDmWnV3UPEHup-0" target="zArWD3oiDmWnV3UPEHup-8">
          <mxGeometry relative="1" as="geometry">
            <Array as="points">
              <mxPoint x="420" y="383" />
            </Array>
          </mxGeometry>
        </mxCell>
        <mxCell id="zArWD3oiDmWnV3UPEHup-0" value="Create new DB" style="rounded=1;whiteSpace=wrap;html=1;fontSize=12;glass=0;strokeWidth=1;shadow=0;" vertex="1" parent="WIyWlLk6GJQsqaUBKTNV-1">
          <mxGeometry x="360" y="180" width="120" height="40" as="geometry" />
        </mxCell>
        <mxCell id="zArWD3oiDmWnV3UPEHup-3" style="edgeStyle=orthogonalEdgeStyle;rounded=0;orthogonalLoop=1;jettySize=auto;html=1;entryX=0;entryY=0.5;entryDx=0;entryDy=0;" edge="1" parent="WIyWlLk6GJQsqaUBKTNV-1" source="zArWD3oiDmWnV3UPEHup-1" target="zArWD3oiDmWnV3UPEHup-0">
          <mxGeometry relative="1" as="geometry" />
        </mxCell>
        <mxCell id="zArWD3oiDmWnV3UPEHup-13" value="No" style="edgeLabel;html=1;align=center;verticalAlign=middle;resizable=0;points=[];" vertex="1" connectable="0" parent="zArWD3oiDmWnV3UPEHup-3">
          <mxGeometry x="-0.1333" y="3" relative="1" as="geometry">
            <mxPoint as="offset" />
          </mxGeometry>
        </mxCell>
        <mxCell id="zArWD3oiDmWnV3UPEHup-7" style="edgeStyle=orthogonalEdgeStyle;rounded=0;orthogonalLoop=1;jettySize=auto;html=1;entryX=0.5;entryY=0;entryDx=0;entryDy=0;" edge="1" parent="WIyWlLk6GJQsqaUBKTNV-1" source="zArWD3oiDmWnV3UPEHup-1">
          <mxGeometry relative="1" as="geometry">
            <mxPoint x="260" y="280" as="targetPoint" />
          </mxGeometry>
        </mxCell>
        <mxCell id="zArWD3oiDmWnV3UPEHup-1" value="DB selected" style="rhombus;whiteSpace=wrap;html=1;" vertex="1" parent="WIyWlLk6GJQsqaUBKTNV-1">
          <mxGeometry x="220" y="160" width="80" height="80" as="geometry" />
        </mxCell>
        <mxCell id="zArWD3oiDmWnV3UPEHup-37" style="edgeStyle=orthogonalEdgeStyle;rounded=0;orthogonalLoop=1;jettySize=auto;html=1;entryX=0.5;entryY=0;entryDx=0;entryDy=0;" edge="1" parent="WIyWlLk6GJQsqaUBKTNV-1" source="zArWD3oiDmWnV3UPEHup-8" target="zArWD3oiDmWnV3UPEHup-15">
          <mxGeometry relative="1" as="geometry" />
        </mxCell>
        <mxCell id="zArWD3oiDmWnV3UPEHup-38" style="edgeStyle=orthogonalEdgeStyle;rounded=0;orthogonalLoop=1;jettySize=auto;html=1;exitX=0.5;exitY=1;exitDx=0;exitDy=0;" edge="1" parent="WIyWlLk6GJQsqaUBKTNV-1" source="zArWD3oiDmWnV3UPEHup-8" target="zArWD3oiDmWnV3UPEHup-22">
          <mxGeometry relative="1" as="geometry" />
        </mxCell>
        <mxCell id="zArWD3oiDmWnV3UPEHup-39" style="edgeStyle=orthogonalEdgeStyle;rounded=0;orthogonalLoop=1;jettySize=auto;html=1;entryX=0.5;entryY=0;entryDx=0;entryDy=0;" edge="1" parent="WIyWlLk6GJQsqaUBKTNV-1" source="zArWD3oiDmWnV3UPEHup-8" target="zArWD3oiDmWnV3UPEHup-16">
          <mxGeometry relative="1" as="geometry" />
        </mxCell>
        <mxCell id="zArWD3oiDmWnV3UPEHup-40" style="edgeStyle=orthogonalEdgeStyle;rounded=0;orthogonalLoop=1;jettySize=auto;html=1;entryX=0.5;entryY=0;entryDx=0;entryDy=0;" edge="1" parent="WIyWlLk6GJQsqaUBKTNV-1" source="zArWD3oiDmWnV3UPEHup-8" target="zArWD3oiDmWnV3UPEHup-25">
          <mxGeometry relative="1" as="geometry" />
        </mxCell>
        <mxCell id="zArWD3oiDmWnV3UPEHup-41" style="edgeStyle=orthogonalEdgeStyle;rounded=0;orthogonalLoop=1;jettySize=auto;html=1;entryX=0.5;entryY=0;entryDx=0;entryDy=0;" edge="1" parent="WIyWlLk6GJQsqaUBKTNV-1" source="zArWD3oiDmWnV3UPEHup-8" target="zArWD3oiDmWnV3UPEHup-24">
          <mxGeometry relative="1" as="geometry" />
        </mxCell>
        <mxCell id="zArWD3oiDmWnV3UPEHup-42" style="edgeStyle=orthogonalEdgeStyle;rounded=0;orthogonalLoop=1;jettySize=auto;html=1;entryX=0.5;entryY=0;entryDx=0;entryDy=0;" edge="1" parent="WIyWlLk6GJQsqaUBKTNV-1" source="zArWD3oiDmWnV3UPEHup-8" target="zArWD3oiDmWnV3UPEHup-23">
          <mxGeometry relative="1" as="geometry" />
        </mxCell>
        <mxCell id="zArWD3oiDmWnV3UPEHup-43" style="edgeStyle=orthogonalEdgeStyle;rounded=0;orthogonalLoop=1;jettySize=auto;html=1;entryX=0.5;entryY=0;entryDx=0;entryDy=0;" edge="1" parent="WIyWlLk6GJQsqaUBKTNV-1" source="zArWD3oiDmWnV3UPEHup-8" target="zArWD3oiDmWnV3UPEHup-28">
          <mxGeometry relative="1" as="geometry" />
        </mxCell>
        <mxCell id="zArWD3oiDmWnV3UPEHup-44" style="edgeStyle=orthogonalEdgeStyle;rounded=0;orthogonalLoop=1;jettySize=auto;html=1;entryX=0.5;entryY=0;entryDx=0;entryDy=0;" edge="1" parent="WIyWlLk6GJQsqaUBKTNV-1" source="zArWD3oiDmWnV3UPEHup-8" target="zArWD3oiDmWnV3UPEHup-27">
          <mxGeometry relative="1" as="geometry" />
        </mxCell>
        <mxCell id="zArWD3oiDmWnV3UPEHup-45" style="edgeStyle=orthogonalEdgeStyle;rounded=0;orthogonalLoop=1;jettySize=auto;html=1;entryX=0.5;entryY=0;entryDx=0;entryDy=0;" edge="1" parent="WIyWlLk6GJQsqaUBKTNV-1" source="zArWD3oiDmWnV3UPEHup-8" target="zArWD3oiDmWnV3UPEHup-26">
          <mxGeometry relative="1" as="geometry" />
        </mxCell>
        <mxCell id="zArWD3oiDmWnV3UPEHup-46" style="edgeStyle=orthogonalEdgeStyle;rounded=0;orthogonalLoop=1;jettySize=auto;html=1;entryX=0.5;entryY=0;entryDx=0;entryDy=0;" edge="1" parent="WIyWlLk6GJQsqaUBKTNV-1" source="zArWD3oiDmWnV3UPEHup-8" target="zArWD3oiDmWnV3UPEHup-19">
          <mxGeometry relative="1" as="geometry" />
        </mxCell>
        <mxCell id="zArWD3oiDmWnV3UPEHup-47" style="edgeStyle=orthogonalEdgeStyle;rounded=0;orthogonalLoop=1;jettySize=auto;html=1;entryX=0.5;entryY=0;entryDx=0;entryDy=0;" edge="1" parent="WIyWlLk6GJQsqaUBKTNV-1" source="zArWD3oiDmWnV3UPEHup-8" target="zArWD3oiDmWnV3UPEHup-20">
          <mxGeometry relative="1" as="geometry" />
        </mxCell>
        <mxCell id="zArWD3oiDmWnV3UPEHup-48" style="edgeStyle=orthogonalEdgeStyle;rounded=0;orthogonalLoop=1;jettySize=auto;html=1;entryX=0.5;entryY=0;entryDx=0;entryDy=0;" edge="1" parent="WIyWlLk6GJQsqaUBKTNV-1" source="zArWD3oiDmWnV3UPEHup-8" target="zArWD3oiDmWnV3UPEHup-21">
          <mxGeometry relative="1" as="geometry" />
        </mxCell>
        <mxCell id="zArWD3oiDmWnV3UPEHup-8" value="Enter command" style="shape=hexagon;perimeter=hexagonPerimeter2;whiteSpace=wrap;html=1;fixedSize=1;" vertex="1" parent="WIyWlLk6GJQsqaUBKTNV-1">
          <mxGeometry x="200" y="360" width="120" height="80" as="geometry" />
        </mxCell>
        <mxCell id="zArWD3oiDmWnV3UPEHup-11" style="edgeStyle=orthogonalEdgeStyle;rounded=0;orthogonalLoop=1;jettySize=auto;html=1;" edge="1" parent="WIyWlLk6GJQsqaUBKTNV-1" source="zArWD3oiDmWnV3UPEHup-10" target="zArWD3oiDmWnV3UPEHup-8">
          <mxGeometry relative="1" as="geometry" />
        </mxCell>
        <mxCell id="zArWD3oiDmWnV3UPEHup-10" value="Load DB" style="rounded=1;whiteSpace=wrap;html=1;fontSize=12;glass=0;strokeWidth=1;shadow=0;" vertex="1" parent="WIyWlLk6GJQsqaUBKTNV-1">
          <mxGeometry x="200" y="280" width="120" height="40" as="geometry" />
        </mxCell>
        <mxCell id="zArWD3oiDmWnV3UPEHup-36" style="edgeStyle=orthogonalEdgeStyle;rounded=0;orthogonalLoop=1;jettySize=auto;html=1;entryX=0.5;entryY=0;entryDx=0;entryDy=0;" edge="1" parent="WIyWlLk6GJQsqaUBKTNV-1" source="zArWD3oiDmWnV3UPEHup-15" target="zArWD3oiDmWnV3UPEHup-29">
          <mxGeometry relative="1" as="geometry" />
        </mxCell>
        <mxCell id="zArWD3oiDmWnV3UPEHup-15" value="add_contact" style="rounded=1;whiteSpace=wrap;html=1;fontSize=12;glass=0;strokeWidth=1;shadow=0;" vertex="1" parent="WIyWlLk6GJQsqaUBKTNV-1">
          <mxGeometry x="-600" y="480" width="120" height="40" as="geometry" />
        </mxCell>
        <mxCell id="zArWD3oiDmWnV3UPEHup-55" style="edgeStyle=orthogonalEdgeStyle;rounded=0;orthogonalLoop=1;jettySize=auto;html=1;entryX=0.5;entryY=0;entryDx=0;entryDy=0;" edge="1" parent="WIyWlLk6GJQsqaUBKTNV-1" source="zArWD3oiDmWnV3UPEHup-16" target="zArWD3oiDmWnV3UPEHup-52">
          <mxGeometry relative="1" as="geometry" />
        </mxCell>
        <mxCell id="zArWD3oiDmWnV3UPEHup-16" value="change_contact" style="rounded=1;whiteSpace=wrap;html=1;fontSize=12;glass=0;strokeWidth=1;shadow=0;" vertex="1" parent="WIyWlLk6GJQsqaUBKTNV-1">
          <mxGeometry x="-440" y="480" width="120" height="40" as="geometry" />
        </mxCell>
        <mxCell id="zArWD3oiDmWnV3UPEHup-19" value="add_note" style="rounded=1;whiteSpace=wrap;html=1;fontSize=12;glass=0;strokeWidth=1;shadow=0;" vertex="1" parent="WIyWlLk6GJQsqaUBKTNV-1">
          <mxGeometry x="680.25" y="480" width="120" height="40" as="geometry" />
        </mxCell>
        <mxCell id="zArWD3oiDmWnV3UPEHup-20" value="birthdays" style="rounded=1;whiteSpace=wrap;html=1;fontSize=12;glass=0;strokeWidth=1;shadow=0;" vertex="1" parent="WIyWlLk6GJQsqaUBKTNV-1">
          <mxGeometry x="519.75" y="480" width="120" height="40" as="geometry" />
        </mxCell>
        <mxCell id="zArWD3oiDmWnV3UPEHup-21" value="show_birthday" style="rounded=1;whiteSpace=wrap;html=1;fontSize=12;glass=0;strokeWidth=1;shadow=0;" vertex="1" parent="WIyWlLk6GJQsqaUBKTNV-1">
          <mxGeometry x="359.75" y="480" width="120" height="40" as="geometry" />
        </mxCell>
        <mxCell id="zArWD3oiDmWnV3UPEHup-22" value="add_birthday" style="rounded=1;whiteSpace=wrap;html=1;fontSize=12;glass=0;strokeWidth=1;shadow=0;" vertex="1" parent="WIyWlLk6GJQsqaUBKTNV-1">
          <mxGeometry x="199.75" y="480" width="120" height="40" as="geometry" />
        </mxCell>
        <mxCell id="zArWD3oiDmWnV3UPEHup-23" value="show_phone" style="rounded=1;whiteSpace=wrap;html=1;fontSize=12;glass=0;strokeWidth=1;shadow=0;" vertex="1" parent="WIyWlLk6GJQsqaUBKTNV-1">
          <mxGeometry x="39.75" y="480" width="120" height="40" as="geometry" />
        </mxCell>
        <mxCell id="zArWD3oiDmWnV3UPEHup-24" value="show_all_records" style="rounded=1;whiteSpace=wrap;html=1;fontSize=12;glass=0;strokeWidth=1;shadow=0;" vertex="1" parent="WIyWlLk6GJQsqaUBKTNV-1">
          <mxGeometry x="-120.25" y="480" width="120" height="40" as="geometry" />
        </mxCell>
        <mxCell id="zArWD3oiDmWnV3UPEHup-78" style="edgeStyle=orthogonalEdgeStyle;rounded=0;orthogonalLoop=1;jettySize=auto;html=1;" edge="1" parent="WIyWlLk6GJQsqaUBKTNV-1" source="zArWD3oiDmWnV3UPEHup-25" target="zArWD3oiDmWnV3UPEHup-70">
          <mxGeometry relative="1" as="geometry" />
        </mxCell>
        <mxCell id="zArWD3oiDmWnV3UPEHup-25" value="remove_contact" style="rounded=1;whiteSpace=wrap;html=1;fontSize=12;glass=0;strokeWidth=1;shadow=0;" vertex="1" parent="WIyWlLk6GJQsqaUBKTNV-1">
          <mxGeometry x="-280.25" y="480" width="120" height="40" as="geometry" />
        </mxCell>
        <mxCell id="zArWD3oiDmWnV3UPEHup-26" value="change_note" style="rounded=1;whiteSpace=wrap;html=1;fontSize=12;glass=0;strokeWidth=1;shadow=0;" vertex="1" parent="WIyWlLk6GJQsqaUBKTNV-1">
          <mxGeometry x="840" y="480" width="120" height="40" as="geometry" />
        </mxCell>
        <mxCell id="zArWD3oiDmWnV3UPEHup-27" value="find_note" style="rounded=1;whiteSpace=wrap;html=1;fontSize=12;glass=0;strokeWidth=1;shadow=0;" vertex="1" parent="WIyWlLk6GJQsqaUBKTNV-1">
          <mxGeometry x="1000" y="480" width="120" height="40" as="geometry" />
        </mxCell>
        <mxCell id="zArWD3oiDmWnV3UPEHup-28" value="delete_note" style="rounded=1;whiteSpace=wrap;html=1;fontSize=12;glass=0;strokeWidth=1;shadow=0;" vertex="1" parent="WIyWlLk6GJQsqaUBKTNV-1">
          <mxGeometry x="1160" y="480" width="120" height="40" as="geometry" />
        </mxCell>
        <mxCell id="zArWD3oiDmWnV3UPEHup-33" style="edgeStyle=orthogonalEdgeStyle;rounded=0;orthogonalLoop=1;jettySize=auto;html=1;" edge="1" parent="WIyWlLk6GJQsqaUBKTNV-1" source="zArWD3oiDmWnV3UPEHup-29" target="zArWD3oiDmWnV3UPEHup-30">
          <mxGeometry relative="1" as="geometry" />
        </mxCell>
        <mxCell id="zArWD3oiDmWnV3UPEHup-35" value="Yes" style="edgeLabel;html=1;align=center;verticalAlign=middle;resizable=0;points=[];" vertex="1" connectable="0" parent="zArWD3oiDmWnV3UPEHup-33">
          <mxGeometry x="0.4349" relative="1" as="geometry">
            <mxPoint as="offset" />
          </mxGeometry>
        </mxCell>
        <mxCell id="zArWD3oiDmWnV3UPEHup-34" style="edgeStyle=orthogonalEdgeStyle;rounded=0;orthogonalLoop=1;jettySize=auto;html=1;entryX=0.5;entryY=0;entryDx=0;entryDy=0;" edge="1" parent="WIyWlLk6GJQsqaUBKTNV-1" source="zArWD3oiDmWnV3UPEHup-29" target="zArWD3oiDmWnV3UPEHup-31">
          <mxGeometry relative="1" as="geometry" />
        </mxCell>
        <mxCell id="zArWD3oiDmWnV3UPEHup-29" value="contact exists" style="rhombus;whiteSpace=wrap;html=1;" vertex="1" parent="WIyWlLk6GJQsqaUBKTNV-1">
          <mxGeometry x="-780" y="560" width="80" height="80" as="geometry" />
        </mxCell>
        <mxCell id="zArWD3oiDmWnV3UPEHup-30" value="return message that contact exists" style="rounded=1;whiteSpace=wrap;html=1;fontSize=12;glass=0;strokeWidth=1;shadow=0;" vertex="1" parent="WIyWlLk6GJQsqaUBKTNV-1">
          <mxGeometry x="-940" y="580" width="120" height="40" as="geometry" />
        </mxCell>
        <mxCell id="zArWD3oiDmWnV3UPEHup-58" style="edgeStyle=orthogonalEdgeStyle;rounded=0;orthogonalLoop=1;jettySize=auto;html=1;entryX=0.5;entryY=0;entryDx=0;entryDy=0;" edge="1" parent="WIyWlLk6GJQsqaUBKTNV-1" source="zArWD3oiDmWnV3UPEHup-31" target="zArWD3oiDmWnV3UPEHup-57">
          <mxGeometry relative="1" as="geometry" />
        </mxCell>
        <mxCell id="zArWD3oiDmWnV3UPEHup-31" value="create contact" style="rounded=1;whiteSpace=wrap;html=1;fontSize=12;glass=0;strokeWidth=1;shadow=0;" vertex="1" parent="WIyWlLk6GJQsqaUBKTNV-1">
          <mxGeometry x="-800" y="670" width="120" height="40" as="geometry" />
        </mxCell>
        <mxCell id="zArWD3oiDmWnV3UPEHup-49" style="edgeStyle=orthogonalEdgeStyle;rounded=0;orthogonalLoop=1;jettySize=auto;html=1;" edge="1" parent="WIyWlLk6GJQsqaUBKTNV-1" source="zArWD3oiDmWnV3UPEHup-52" target="zArWD3oiDmWnV3UPEHup-53">
          <mxGeometry relative="1" as="geometry" />
        </mxCell>
        <mxCell id="zArWD3oiDmWnV3UPEHup-50" value="No" style="edgeLabel;html=1;align=center;verticalAlign=middle;resizable=0;points=[];" vertex="1" connectable="0" parent="zArWD3oiDmWnV3UPEHup-49">
          <mxGeometry x="0.4349" relative="1" as="geometry">
            <mxPoint as="offset" />
          </mxGeometry>
        </mxCell>
        <mxCell id="zArWD3oiDmWnV3UPEHup-51" style="edgeStyle=orthogonalEdgeStyle;rounded=0;orthogonalLoop=1;jettySize=auto;html=1;entryX=0.5;entryY=0;entryDx=0;entryDy=0;" edge="1" parent="WIyWlLk6GJQsqaUBKTNV-1" source="zArWD3oiDmWnV3UPEHup-83" target="zArWD3oiDmWnV3UPEHup-54">
          <mxGeometry relative="1" as="geometry" />
        </mxCell>
        <mxCell id="zArWD3oiDmWnV3UPEHup-52" value="contact exist" style="rhombus;whiteSpace=wrap;html=1;" vertex="1" parent="WIyWlLk6GJQsqaUBKTNV-1">
          <mxGeometry x="-420" y="560" width="80" height="80" as="geometry" />
        </mxCell>
        <mxCell id="zArWD3oiDmWnV3UPEHup-53" value="return message that contact exists" style="rounded=1;whiteSpace=wrap;html=1;fontSize=12;glass=0;strokeWidth=1;shadow=0;" vertex="1" parent="WIyWlLk6GJQsqaUBKTNV-1">
          <mxGeometry x="-600" y="580" width="120" height="40" as="geometry" />
        </mxCell>
        <mxCell id="zArWD3oiDmWnV3UPEHup-54" value="change phone" style="rounded=1;whiteSpace=wrap;html=1;fontSize=12;glass=0;strokeWidth=1;shadow=0;" vertex="1" parent="WIyWlLk6GJQsqaUBKTNV-1">
          <mxGeometry x="-440" y="880" width="120" height="40" as="geometry" />
        </mxCell>
        <mxCell id="zArWD3oiDmWnV3UPEHup-60" style="edgeStyle=orthogonalEdgeStyle;rounded=0;orthogonalLoop=1;jettySize=auto;html=1;exitX=0.5;exitY=1;exitDx=0;exitDy=0;entryX=0.5;entryY=0;entryDx=0;entryDy=0;" edge="1" parent="WIyWlLk6GJQsqaUBKTNV-1" source="zArWD3oiDmWnV3UPEHup-89" target="zArWD3oiDmWnV3UPEHup-59">
          <mxGeometry relative="1" as="geometry" />
        </mxCell>
        <mxCell id="zArWD3oiDmWnV3UPEHup-57" value="phone in parameters" style="rhombus;whiteSpace=wrap;html=1;" vertex="1" parent="WIyWlLk6GJQsqaUBKTNV-1">
          <mxGeometry x="-780" y="740" width="80" height="80" as="geometry" />
        </mxCell>
        <mxCell id="zArWD3oiDmWnV3UPEHup-59" value="add phone to contact" style="rounded=1;whiteSpace=wrap;html=1;fontSize=12;glass=0;strokeWidth=1;shadow=0;" vertex="1" parent="WIyWlLk6GJQsqaUBKTNV-1">
          <mxGeometry x="-800" y="960" width="120" height="40" as="geometry" />
        </mxCell>
        <mxCell id="zArWD3oiDmWnV3UPEHup-62" value="return message that phone is missed" style="rounded=1;whiteSpace=wrap;html=1;fontSize=12;glass=0;strokeWidth=1;shadow=0;" vertex="1" parent="WIyWlLk6GJQsqaUBKTNV-1">
          <mxGeometry x="-600" y="690" width="120" height="40" as="geometry" />
        </mxCell>
        <mxCell id="zArWD3oiDmWnV3UPEHup-64" value="" style="edgeStyle=orthogonalEdgeStyle;rounded=0;orthogonalLoop=1;jettySize=auto;html=1;entryX=0.5;entryY=0;entryDx=0;entryDy=0;" edge="1" parent="WIyWlLk6GJQsqaUBKTNV-1" source="zArWD3oiDmWnV3UPEHup-52" target="zArWD3oiDmWnV3UPEHup-63">
          <mxGeometry relative="1" as="geometry">
            <mxPoint x="-380" y="640" as="sourcePoint" />
            <mxPoint x="-380" y="800" as="targetPoint" />
          </mxGeometry>
        </mxCell>
        <mxCell id="zArWD3oiDmWnV3UPEHup-65" style="edgeStyle=orthogonalEdgeStyle;rounded=0;orthogonalLoop=1;jettySize=auto;html=1;entryX=1;entryY=0.5;entryDx=0;entryDy=0;" edge="1" parent="WIyWlLk6GJQsqaUBKTNV-1" source="zArWD3oiDmWnV3UPEHup-63" target="zArWD3oiDmWnV3UPEHup-62">
          <mxGeometry relative="1" as="geometry" />
        </mxCell>
        <mxCell id="zArWD3oiDmWnV3UPEHup-66" value="No" style="edgeLabel;html=1;align=center;verticalAlign=middle;resizable=0;points=[];" vertex="1" connectable="0" parent="zArWD3oiDmWnV3UPEHup-65">
          <mxGeometry x="0.3333" y="-1" relative="1" as="geometry">
            <mxPoint as="offset" />
          </mxGeometry>
        </mxCell>
        <mxCell id="zArWD3oiDmWnV3UPEHup-63" value="old and new phone exist" style="rhombus;whiteSpace=wrap;html=1;" vertex="1" parent="WIyWlLk6GJQsqaUBKTNV-1">
          <mxGeometry x="-420" y="670" width="80" height="80" as="geometry" />
        </mxCell>
        <mxCell id="zArWD3oiDmWnV3UPEHup-67" style="edgeStyle=orthogonalEdgeStyle;rounded=0;orthogonalLoop=1;jettySize=auto;html=1;" edge="1" parent="WIyWlLk6GJQsqaUBKTNV-1" source="zArWD3oiDmWnV3UPEHup-70" target="zArWD3oiDmWnV3UPEHup-71">
          <mxGeometry relative="1" as="geometry" />
        </mxCell>
        <mxCell id="zArWD3oiDmWnV3UPEHup-68" value="No" style="edgeLabel;html=1;align=center;verticalAlign=middle;resizable=0;points=[];" vertex="1" connectable="0" parent="zArWD3oiDmWnV3UPEHup-67">
          <mxGeometry x="0.4349" relative="1" as="geometry">
            <mxPoint as="offset" />
          </mxGeometry>
        </mxCell>
        <mxCell id="zArWD3oiDmWnV3UPEHup-70" value="contact exist" style="rhombus;whiteSpace=wrap;html=1;" vertex="1" parent="WIyWlLk6GJQsqaUBKTNV-1">
          <mxGeometry x="-260" y="960" width="80" height="80" as="geometry" />
        </mxCell>
        <mxCell id="zArWD3oiDmWnV3UPEHup-71" value="return message that contact not exists" style="rounded=1;whiteSpace=wrap;html=1;fontSize=12;glass=0;strokeWidth=1;shadow=0;" vertex="1" parent="WIyWlLk6GJQsqaUBKTNV-1">
          <mxGeometry x="-440" y="980" width="120" height="40" as="geometry" />
        </mxCell>
        <mxCell id="zArWD3oiDmWnV3UPEHup-74" value="" style="edgeStyle=orthogonalEdgeStyle;rounded=0;orthogonalLoop=1;jettySize=auto;html=1;entryX=0.5;entryY=0;entryDx=0;entryDy=0;" edge="1" parent="WIyWlLk6GJQsqaUBKTNV-1" source="zArWD3oiDmWnV3UPEHup-70" target="zArWD3oiDmWnV3UPEHup-79">
          <mxGeometry relative="1" as="geometry">
            <mxPoint x="-220" y="1040" as="sourcePoint" />
            <mxPoint x="-220" y="1070" as="targetPoint" />
          </mxGeometry>
        </mxCell>
        <mxCell id="zArWD3oiDmWnV3UPEHup-79" value="remove contact" style="rounded=1;whiteSpace=wrap;html=1;fontSize=12;glass=0;strokeWidth=1;shadow=0;" vertex="1" parent="WIyWlLk6GJQsqaUBKTNV-1">
          <mxGeometry x="-280.25" y="1070" width="120" height="40" as="geometry" />
        </mxCell>
        <mxCell id="zArWD3oiDmWnV3UPEHup-80" value="return all&amp;nbsp;" style="rounded=1;whiteSpace=wrap;html=1;fontSize=12;glass=0;strokeWidth=1;shadow=0;" vertex="1" parent="WIyWlLk6GJQsqaUBKTNV-1">
          <mxGeometry x="-120.25" y="560" width="120" height="40" as="geometry" />
        </mxCell>
        <mxCell id="zArWD3oiDmWnV3UPEHup-84" value="" style="edgeStyle=orthogonalEdgeStyle;rounded=0;orthogonalLoop=1;jettySize=auto;html=1;entryX=0.5;entryY=0;entryDx=0;entryDy=0;" edge="1" parent="WIyWlLk6GJQsqaUBKTNV-1" source="zArWD3oiDmWnV3UPEHup-63" target="zArWD3oiDmWnV3UPEHup-83">
          <mxGeometry relative="1" as="geometry">
            <mxPoint x="-380" y="750" as="sourcePoint" />
            <mxPoint x="-380" y="860" as="targetPoint" />
          </mxGeometry>
        </mxCell>
        <mxCell id="zArWD3oiDmWnV3UPEHup-86" style="edgeStyle=orthogonalEdgeStyle;rounded=0;orthogonalLoop=1;jettySize=auto;html=1;entryX=1;entryY=0.5;entryDx=0;entryDy=0;" edge="1" parent="WIyWlLk6GJQsqaUBKTNV-1" source="zArWD3oiDmWnV3UPEHup-83" target="zArWD3oiDmWnV3UPEHup-85">
          <mxGeometry relative="1" as="geometry" />
        </mxCell>
        <mxCell id="zArWD3oiDmWnV3UPEHup-83" value="phone format is ok" style="rhombus;whiteSpace=wrap;html=1;" vertex="1" parent="WIyWlLk6GJQsqaUBKTNV-1">
          <mxGeometry x="-420" y="770" width="80" height="80" as="geometry" />
        </mxCell>
        <mxCell id="zArWD3oiDmWnV3UPEHup-85" value="return message that phone format is wrong" style="rounded=1;whiteSpace=wrap;html=1;fontSize=12;glass=0;strokeWidth=1;shadow=0;" vertex="1" parent="WIyWlLk6GJQsqaUBKTNV-1">
          <mxGeometry x="-600" y="790" width="120" height="40" as="geometry" />
        </mxCell>
        <mxCell id="zArWD3oiDmWnV3UPEHup-88" style="edgeStyle=orthogonalEdgeStyle;rounded=0;orthogonalLoop=1;jettySize=auto;html=1;entryX=1;entryY=0.5;entryDx=0;entryDy=0;" edge="1" parent="WIyWlLk6GJQsqaUBKTNV-1" source="zArWD3oiDmWnV3UPEHup-89" target="zArWD3oiDmWnV3UPEHup-90">
          <mxGeometry relative="1" as="geometry" />
        </mxCell>
        <mxCell id="zArWD3oiDmWnV3UPEHup-93" value="No" style="edgeLabel;html=1;align=center;verticalAlign=middle;resizable=0;points=[];" vertex="1" connectable="0" parent="zArWD3oiDmWnV3UPEHup-88">
          <mxGeometry x="0.14" relative="1" as="geometry">
            <mxPoint as="offset" />
          </mxGeometry>
        </mxCell>
        <mxCell id="zArWD3oiDmWnV3UPEHup-90" value="return message that phone format is wrong" style="rounded=1;whiteSpace=wrap;html=1;fontSize=12;glass=0;strokeWidth=1;shadow=0;" vertex="1" parent="WIyWlLk6GJQsqaUBKTNV-1">
          <mxGeometry x="-947" y="870" width="120" height="40" as="geometry" />
        </mxCell>
        <mxCell id="zArWD3oiDmWnV3UPEHup-91" value="" style="edgeStyle=orthogonalEdgeStyle;rounded=0;orthogonalLoop=1;jettySize=auto;html=1;exitX=0.5;exitY=1;exitDx=0;exitDy=0;entryX=0.5;entryY=0;entryDx=0;entryDy=0;" edge="1" parent="WIyWlLk6GJQsqaUBKTNV-1" source="zArWD3oiDmWnV3UPEHup-57" target="zArWD3oiDmWnV3UPEHup-89">
          <mxGeometry relative="1" as="geometry">
            <mxPoint x="-740" y="820" as="sourcePoint" />
            <mxPoint x="-740" y="980" as="targetPoint" />
          </mxGeometry>
        </mxCell>
        <mxCell id="zArWD3oiDmWnV3UPEHup-92" value="yes" style="edgeLabel;html=1;align=center;verticalAlign=middle;resizable=0;points=[];" vertex="1" connectable="0" parent="zArWD3oiDmWnV3UPEHup-91">
          <mxGeometry x="-0.2857" y="4" relative="1" as="geometry">
            <mxPoint as="offset" />
          </mxGeometry>
        </mxCell>
        <mxCell id="zArWD3oiDmWnV3UPEHup-89" value="phone format is ok" style="rhombus;whiteSpace=wrap;html=1;" vertex="1" parent="WIyWlLk6GJQsqaUBKTNV-1">
          <mxGeometry x="-780" y="850" width="80" height="80" as="geometry" />
        </mxCell>
      </root>
    </mxGraphModel>
  </diagram>
</mxfile>
